<?xml version="1.0" standalone="no"?><!DOCTYPE svg PUBLIC "-//W3C//DTD SVG 1.1//EN" "http://www.w3.org/Graphics/SVG/1.1/DTD/svg11.dtd"><svg t="1672643481616" class="icon" viewBox="0 0 1024 1024" version="1.1" xmlns="http://www.w3.org/2000/svg" p-id="1296" xmlns:xlink="http://www.w3.org/1999/xlink" width="200" height="200"><path d="M721.877333 303.104a48.469333 48.469333 0 0 0-68.437333 0l-141.909333 141.909333-136.277334-136.234666a46.933333 46.933333 0 1 0-66.432 66.432l136.277334 136.277333-141.952 141.952a48.384 48.384 0 0 0 68.394666 68.352l141.952-141.909333 137.045334 137.002666a46.933333 46.933333 0 1 0 66.432-66.432l-137.045334-137.002666 141.952-141.952a48.469333 48.469333 0 0 0 0-68.394667M512 1024C229.248 1024 0 794.752 0 512 0 229.205333 229.248 0 512 0c282.794667 0 512 229.205333 512 512 0 282.752-229.205333 512-512 512" fill="#FA5555" p-id="1297"></path></svg>