<?xml version="1.0" standalone="no"?><!DOCTYPE svg PUBLIC "-//W3C//DTD SVG 1.1//EN"
        "http://www.w3.org/Graphics/SVG/1.1/DTD/svg11.dtd">
<svg t="1666623514235" class="icon" viewBox="0 0 1024 1024" version="1.1" xmlns="http://www.w3.org/2000/svg"
     p-id="17722" xmlns:xlink="http://www.w3.org/1999/xlink" width="400" height="400">
    <path d="M512 1024C229.239467 1024 0 794.760533 0 512S229.239467 0 512 0 1024 229.239467 1024 512 794.760533 1024 512 1024z m87.745422-662.232178c26.282667-27.170133 52.8384-76.640711 67.128889-166.343111a30.378667 30.378667 0 0 0-37.956267-34.042311c-14.108444 3.868444-136.851911 39.776711-165.6832 126.134044l-81.578666-81.646933a30.287644 30.287644 0 0 0-51.746134 21.458489c0 8.055467 3.185778 15.7696 8.874667 21.458489l99.987911 100.078933C330.569956 376.445156 250.311111 474.771911 250.311111 591.553422 250.311111 729.634133 362.518756 841.955556 500.462933 841.955556s250.174578-112.321422 250.174578-250.402134c0-102.786844-62.213689-191.260444-150.892089-229.7856z"
          p-id="17723"></path>
    <path d="M520.100978 308.565333c8.920178-30.082844 43.463111-53.816889 75.502933-69.472711-19.023644 68.334933-46.739911 94.458311-63.601778 94.481067a11.650844 11.650844 0 0 1-9.784889-4.960711c-3.640889-4.9152-4.437333-12.219733-2.116266-20.047645z"
          p-id="17724"></path>
</svg>