<?xml version="1.0" standalone="no"?><!DOCTYPE svg PUBLIC "-//W3C//DTD SVG 1.1//EN"
        "http://www.w3.org/Graphics/SVG/1.1/DTD/svg11.dtd">
<svg t="1668277013392" class="icon" viewBox="0 0 1024 1024" version="1.1" xmlns="http://www.w3.org/2000/svg" p-id="9273"
     xmlns:xlink="http://www.w3.org/1999/xlink" width="200" height="200">
    <path d="M554.057143 404.114286l-67.657143 3.657143-47.542857 155.428571 56.685714-5.485714-34.742857 133.485714 126.171429-181.028571-74.971429 7.314285z"
           p-id="9274"></path>
    <path d="M508.342857 96.914286C281.6 96.914286 96.914286 281.6 96.914286 508.342857s184.685714 411.428571 411.428571 411.428572 411.428571-184.685714 411.428572-411.428572S735.085714 96.914286 508.342857 96.914286z m0 676.571428c-115.2 0-210.285714-91.428571-210.285714-204.8 0-149.942857 210.285714-320 210.285714-320s210.285714 170.057143 210.285714 320c0 111.542857-95.085714 204.8-210.285714 204.8z"
           p-id="9275"></path>
</svg>