<?xml version="1.0" standalone="no"?><!DOCTYPE svg PUBLIC "-//W3C//DTD SVG 1.1//EN" "http://www.w3.org/Graphics/SVG/1.1/DTD/svg11.dtd"><svg t="1672656029499" class="icon" viewBox="0 0 1024 1024" version="1.1" xmlns="http://www.w3.org/2000/svg" p-id="4603" xmlns:xlink="http://www.w3.org/1999/xlink" width="200" height="200"><path d="M512 1024C229.239467 1024 0 794.760533 0 512S229.239467 0 512 0 1024 229.239467 1024 512 794.760533 1024 512 1024zM614.4 390.644622h-204.8v407.119645c0 17.954133 5.12 33.5872 15.382756 46.944711 10.24 13.334756 26.487467 20.002133 48.7424 20.002133h74.592711c10.922667 0 20.388978-1.820444 28.444444-5.5296a64.398222 64.398222 0 0 0 33.359645-35.202844c2.8672-7.350044 4.278044-14.927644 4.278044-22.755556V390.644622zM577.171911 352.711111V225.416533c0-6.826667-0.113778-13.425778-0.364089-19.842844-0.227556-6.371556-1.592889-11.605333-4.164266-15.724089-2.525867-4.096-6.690133-6.599111-12.470045-7.532089-5.779911-0.910222-13.971911 0.455111-24.598755 4.096-7.395556 2.275556-15.610311 6.735644-24.621512 13.357511-9.0112 6.599111-20.912356 16.543289-35.703466 29.764267-5.074489 4.551111-9.466311 8.328533-13.152711 11.286755-3.709156 2.958222-6.712889 6.052978-9.0112 9.238756a29.582222 29.582222 0 0 0-4.869689 11.628089c-0.910222 4.551111-1.365333 10.740622-1.365334 18.477511V352.711111h130.321067z" p-id="4604"></path></svg>