<?xml version="1.0" standalone="no"?><!DOCTYPE svg PUBLIC "-//W3C//DTD SVG 1.1//EN" "http://www.w3.org/Graphics/SVG/1.1/DTD/svg11.dtd"><svg t="1672656103988" class="icon" viewBox="0 0 1024 1024" version="1.1" xmlns="http://www.w3.org/2000/svg" p-id="7847" xmlns:xlink="http://www.w3.org/1999/xlink" width="200" height="200"><path d="M512 1024C229.239467 1024 0 794.760533 0 512S229.239467 0 512 0 1024 229.239467 1024 512 794.760533 1024 512 1024z m62.805333-825.480533c0 4.824178 0.4096 9.853156 1.137778 15.018666 5.461333 38.024533 28.603733 82.033778 60.2112 119.739734 31.516444 37.614933 70.656 68.130133 108.1344 79.234844 9.443556 2.798933 18.659556 4.3008 27.465956 4.278045a151.415467 151.415467 0 0 0-12.356267-180.588089c-46.4896-54.317511-123.107556-68.084622-184.593067-37.6832zM264.351289 615.947378c-0.455111 27.0336 13.243733 41.915733 39.458133 46.08l288.585956-192.739556c-39.867733-25.031111-73.819022-66.309689-91.386311-109.727289l-236.657778 256.386845z m9.443555 61.166933l-30.037333-28.672c-35.293867 36.590933-45.056 77.596444-35.498667 110.068622a79.394133 79.394133 0 0 0 27.989334 40.914489c13.220978 10.171733 30.1056 16.7936 49.857422 18.477511 50.221511 4.278044 121.969778-24.189156 200.476444-111.638755 61.758578-68.744533 115.074844-100.989156 157.331912-108.3392 21.0944-3.6864 39.025778-0.932978 53.384533 6.5536 14.336 7.509333 25.622756 19.888356 33.291378 35.4304 13.653333 27.670756 16.201956 65.035378 5.302044 103.810844l40.095289 11.172978c13.698844-48.651378 9.989689-96.620089-8.055467-133.142756-11.537067-23.392711-28.8768-42.211556-51.222755-53.885155-22.368711-11.696356-49.311289-16.133689-79.985778-10.786133-50.699378 8.851911-112.594489 45.147022-181.270756 121.628444-68.334933 76.094578-126.816711 101.193956-165.910755 97.848889-11.4688-0.978489-20.866844-4.5056-27.830045-9.853156a38.138311 38.138311 0 0 1-13.494044-19.706311c-5.666133-19.228444 1.592889-45.010489 25.577244-69.859555z m474.771912-233.6768c-46.671644-15.36-93.297778-51.518578-129.934223-95.232-33.336889-39.776711-58.9824-86.471111-69.336177-129.934222a151.483733 151.483733 0 0 0-32.540445 117.76c16.7936 50.062222 60.302222 101.922133 108.771556 124.063289a153.827556 153.827556 0 0 0 123.039289-16.657067z" p-id="7848"></path></svg>