<?xml version="1.0" standalone="no"?><!DOCTYPE svg PUBLIC "-//W3C//DTD SVG 1.1//EN"
        "http://www.w3.org/Graphics/SVG/1.1/DTD/svg11.dtd">
<svg t="1672656097187" class="icon" viewBox="0 0 1024 1024" version="1.1" xmlns="http://www.w3.org/2000/svg" p-id="7538"
     xmlns:xlink="http://www.w3.org/1999/xlink" width="200" height="200">
    <path d="M512 1024C229.239467 1024 0 794.760533 0 512S229.239467 0 512 0 1024 229.239467 1024 512 794.760533 1024 512 1024z m-26.100622-288.039822v65.649778h-142.791111c-6.485333 0-11.992178 1.319822-16.520534 3.800177-4.5056 2.412089-8.192 6.144-10.558577 10.740623-2.412089 4.619378-3.709156 10.24-3.709156 16.839111v0.364089c0 6.599111 1.297067 12.219733 3.709156 16.839111 2.389333 4.551111 6.052978 8.305778 10.558577 10.717866 4.551111 2.503111 10.0352 3.800178 16.520534 3.800178h347.591111c6.485333 0 11.992178-1.319822 16.543289-3.800178 4.482844-2.412089 8.169244-6.144 10.535822-10.717866a35.726222 35.726222 0 0 0 3.731911-16.839111v-0.386845c0-6.599111-1.297067-12.196978-3.731911-16.839111a25.6 25.6 0 0 0-10.535822-10.717867 34.178844 34.178844 0 0 0-16.543289-3.800177h-142.791111v-64.216178c139.036444-12.743111 248.0128-131.663644 248.0128-276.48 0-153.304178-122.151822-277.595022-272.816356-277.595022-150.641778 0-272.7936 124.290844-272.7936 277.617777 0 140.470044 102.536533 256.568889 235.588267 275.023645z"
          p-id="7539"></path>
    <path d="M523.104711 284.2624c-25.486222 0-49.607111 6.257778-71.088355 17.408l26.396444 70.747022a86.129778 86.129778 0 0 1 89.383822 0l26.396445-70.769778a153.668267 153.668267 0 0 0-71.088356-17.385244zM668.672 548.681956a160.699733 160.699733 0 0 0 20.730311-71.338667l-73.409422-12.105956a89.998222 89.998222 0 0 1-11.696356 45.647645 87.995733 87.995733 0 0 1-32.995555 33.109333l47.012978 58.641067a157.468444 157.468444 0 0 0 50.358044-53.930667zM377.560178 548.681956c12.333511 21.799822 29.582222 40.277333 50.335289 53.953422l47.012977-58.641067a87.972978 87.972978 0 0 1-32.995555-33.109333 90.020978 90.020978 0 0 1-11.696356-45.647645l-73.409422 12.105956a160.676978 160.676978 0 0 0 20.753067 71.338667zM523.104711 505.082311c27.397689 0 49.607111-22.596267 49.607111-50.471822s-22.209422-50.471822-49.607111-50.471822c-27.374933 0-49.607111 22.596267-49.607111 50.471822s22.232178 50.471822 49.607111 50.471822z"
          p-id="7540"></path>
</svg>