<?xml version="1.0" standalone="no"?><!DOCTYPE svg PUBLIC "-//W3C//DTD SVG 1.1//EN"
        "http://www.w3.org/Graphics/SVG/1.1/DTD/svg11.dtd">
<svg t="1672663377090" class="icon" viewBox="0 0 1024 1024" version="1.1" xmlns="http://www.w3.org/2000/svg"
     p-id="76672" xmlns:xlink="http://www.w3.org/1999/xlink" width="200" height="200">
    <path d="M586.151 324.116c0.177 0 0.327 0 0.492-0.014-0.164-4.956-0.887-12.37-1.966-19.797-6.554-3.317-21.245-7.891-34.31-10.527l-12.507-2.54-8.588-32.591c-0.737-2.758-4.765-5.939-9.011-5.939h-21.968c-4.178 0-8.246 3.195-8.983 5.967l-8.629 32.563-12.493 2.54c-13.053 2.635-27.73 7.209-34.31 10.527-1.052 7.427-1.789 14.854-1.952 19.811 0.15 0.014 0.301 0.014 0.478 0.014h153.75z"
           p-id="76673"></path>
    <path d="M507.522 17.217c-270.308 0-490.223 219.915-490.223 490.223s219.915 490.223 490.223 490.223c270.308 0 490.223-219.915 490.223-490.223s-219.915-490.223-490.223-490.223zM394.431 291.471l0.369-1.775c1.598-6.116 5.666-21.613 52.73-33.286l2.171-8.22c5.57-21.122 26.010-36.454 48.592-36.454h21.968c22.528 0 42.967 15.306 48.62 36.414l2.171 8.246c47.050 11.674 51.104 27.184 52.702 33.314l0.369 1.734c7.646 44.919 0.983 52.879-3.004 57.645-8.425 10.117-21.203 15.961-34.98 15.961h-153.737c-13.858 0-26.638-5.843-35.061-16.029-3.891-4.683-10.499-12.629-2.908-57.549zM371.957 426.885h271.141v40.96h-271.141v-40.96zM371.957 531.866h271.141v40.96h-271.141v-40.96zM371.957 636.573h170.844v40.96h-170.844v-40.96zM739.369 742.974c0 33.178-26.993 60.157-60.157 60.157h-343.367c-33.178 0-60.157-26.993-60.157-60.157v-395.373c0-33.178 26.993-60.157 60.157-60.157h32.796v40.96h-32.796c-10.581 0-19.197 8.615-19.197 19.197v395.373c0 10.581 8.615 19.197 19.197 19.197h343.354c10.581 0 19.197-8.615 19.197-19.197v-395.373c0-10.581-8.615-19.197-19.197-19.197h-32.796v-40.96h32.796c33.178 0 60.157 26.993 60.157 60.157v395.373z"
           p-id="76674"></path>
</svg>