<?xml version="1.0" standalone="no"?><!DOCTYPE svg PUBLIC "-//W3C//DTD SVG 1.1//EN" "http://www.w3.org/Graphics/SVG/1.1/DTD/svg11.dtd"><svg t="1672656100655" class="icon" viewBox="0 0 1024 1024" version="1.1" xmlns="http://www.w3.org/2000/svg" p-id="7693" xmlns:xlink="http://www.w3.org/1999/xlink" width="200" height="200"><path d="M512 1024C229.239467 1024 0 794.760533 0 512S229.239467 0 512 0 1024 229.239467 1024 512 794.760533 1024 512 1024z m344.610133-607.323022c17.840356-10.877156 60.871111-19.797333-3.140266-46.921956-73.568711-29.4912-221.479822-83.376356-286.196623-109.340444-36.272356-17.681067-57.1392-9.216-96.642844 6.303289-66.719289 24.530489-192.603022 69.540978-268.743111 97.621333-58.368 21.276444-54.8864 37.182578-0.932978 62.236444 80.850489 37.569422 243.689244 95.277511 277.890845 107.793067 34.2016 12.515556 59.050667 12.606578 93.525333-2.503111 34.497422-15.109689 84.354844-34.474667 239.843555-96.711111v92.319289l-36.636444 32.3584 53.521067 51.837155 52.861155-53.407289-25.349689-24.644266v-116.9408z m-276.730311 161.473422c-32.426667 16.611556-77.778489 12.356267-113.527466 0-57.981156-19.273956-105.904356-33.792-148.593778-50.676622v172.350578S390.894933 773.688889 526.267733 773.688889c125.701689 0 197.2224-73.864533 197.2224-73.864533V515.185778c-55.296 22.983111-105.995378 47.900444-143.610311 62.964622z" p-id="7694"></path></svg>