<?xml version="1.0" standalone="no"?><!DOCTYPE svg PUBLIC "-//W3C//DTD SVG 1.1//EN" "http://www.w3.org/Graphics/SVG/1.1/DTD/svg11.dtd"><svg t="1672656070498" class="icon" viewBox="0 0 1024 1024" version="1.1" xmlns="http://www.w3.org/2000/svg" p-id="6303" xmlns:xlink="http://www.w3.org/1999/xlink" width="200" height="200"><path d="M512 1024C229.239467 1024 0 794.760533 0 512S229.239467 0 512 0 1024 229.239467 1024 512 794.760533 1024 512 1024z m326.633244-593.806222a279.7568 279.7568 0 0 0-70.4512-58.117689 316.165689 316.165689 0 0 0-105.745066-38.752711 316.643556 316.643556 0 0 0-25.1904-3.504356c-51.495822-5.188267-101.057422 1.706667-144.952889 18.045156 18.204444-16.839111 38.229333-36.568178 58.254222-58.618311 46.648889-51.382044 76.572444-96.938667 89.861689-118.784 3.868444-6.371556-4.391822-11.537067-14.381511-9.102223a399.815111 399.815111 0 0 0-80.941511 28.580978c-27.898311 13.425778-52.724622 29.969067-73.341156 49.379556-4.414578 4.096-8.6016 8.374044-12.629333 12.788622-25.349689 27.8528-40.300089 58.686578-45.169778 90.089244-15.701333-19.956622-38.070044-33.314133-66.104889-38.320355a135.327289 135.327289 0 0 0-11.946666-1.615645c-19.000889-1.797689-39.594667-0.068267-61.166934 4.801423-19.387733 4.323556-39.981511 11.309511-61.280711 20.844089-7.441067 3.345067-11.286756 10.467556-6.599111 12.447288 16.224711 6.894933 51.768889 20.2752 100.352 28.945067 17.021156 3.049244 33.405156 5.097244 48.423822 6.485333-25.258667 9.0112-48.765156 25.372444-68.289422 49.652623-4.255289 5.279289-8.192 10.717867-11.741867 16.429511-16.930133 26.760533-26.692267 57.503289-29.582222 89.656889a232.083911 232.083911 0 0 0 6.735645 80.873244c2.2528 8.624356 13.425778 12.743111 19.615288 7.395556a739.623822 739.623822 0 0 0 100.625067-105.949867 741.330489 741.330489 0 0 0 54.272-81.191822 392.6016 392.6016 0 0 1 38.866489 37.796978 374.146844 374.146844 0 0 1 96.301511 229.649066h-2.116267c-101.262222 0-191.396978 42.825956-248.900266 119.102578h497.914311c-27.215644-38.525156-61.44-62.737067-100.898133-83.035022-5.233778-2.730667-10.490311-5.302044-15.837867-7.736889-3.185778-81.601422-31.789511-158.3104-82.102045-220.933689a442.322489 442.322489 0 0 0-77.915022-76.322133c27.921067 4.755911 59.141689 9.216 92.501334 12.583822 90.112 9.079467 166.684444 7.145244 203.639466 5.233778 10.831644-0.546133 16.497778-11.241244 9.921422-18.796089z" p-id="6304"></path></svg>