<?xml version="1.0" standalone="no"?><!DOCTYPE svg PUBLIC "-//W3C//DTD SVG 1.1//EN"
        "http://www.w3.org/Graphics/SVG/1.1/DTD/svg11.dtd">
<svg t="1672656081438" class="icon" viewBox="0 0 1024 1024" version="1.1" xmlns="http://www.w3.org/2000/svg" p-id="6766"
     xmlns:xlink="http://www.w3.org/1999/xlink" width="200" height="200">
    <path d="M512 1024C229.239467 1024 0 794.760533 0 512S229.239467 0 512 0 1024 229.239467 1024 512 794.760533 1024 512 1024z m326.200889-467.626667c-20.707556-178.084978-57.344-305.743644-173.6704-305.743644-58.936889 0-89.201778 59.892622-141.789867 64.625778-54.158222-4.733156-82.852978-64.625778-141.812622-64.625778-116.303644 0-152.940089 127.658667-172.077511 304.173511-11.150222 94.549333-1.592889 173.351822 57.366755 173.351822 82.830222 0 86.038756-74.069333 144.9984-108.7488 22.300444-11.036444 71.68-15.746844 113.095112-17.339733 41.437867 1.592889 90.840178 6.303289 113.140622 17.339733 58.936889 34.679467 62.122667 108.7488 144.9984 108.7488 57.344 1.592889 65.308444-77.232356 55.751111-171.781689z"
          p-id="6767"></path>
    <path d="M382.520889 540.626489c-46.193778 0-82.830222-37.842489-82.830222-81.965511 0-44.123022 36.636444-81.942756 82.830222-81.942756 46.193778 0 82.852978 36.2496 82.852978 81.942756 0 45.715911-38.229333 81.965511-82.830223 81.965511z m-47.786667-81.965511c0 12.606578 4.778667 23.643022 14.336 33.109333 7.964444 7.873422 20.707556 14.176711 33.450667 14.176711 12.743111 0 23.893333-4.733156 33.450667-14.176711 7.964444-7.896178 14.336-20.48 14.336-33.109333 0-12.606578-4.778667-23.643022-14.336-33.086578-7.964444-7.873422-20.707556-14.199467-33.450667-14.199467-12.743111 0-23.893333 4.733156-33.450667 14.199467-9.557333 7.873422-14.336 20.48-14.336 33.086578zM753.755022 474.430578h-65.308444v64.625778h-31.857778v-64.625778h-65.353956v-31.516445h65.3312v-63.032889h31.857778v63.032889h65.3312z"
          p-id="6768"></path>
</svg>