<?xml version="1.0" standalone="no"?><!DOCTYPE svg PUBLIC "-//W3C//DTD SVG 1.1//EN"
        "http://www.w3.org/Graphics/SVG/1.1/DTD/svg11.dtd">
<svg t="1672663924920" class="icon" viewBox="0 0 1024 1024" version="1.1" xmlns="http://www.w3.org/2000/svg"
     p-id="93469" xmlns:xlink="http://www.w3.org/1999/xlink" width="200" height="200">
    <path d="M511.886222 803.384889 511.863467 803.384889 511.863467 803.384889C382.020267 803.384889 209.078044 773.916444 215.426844 581.905067 218.703644 482.7136 304.878933 389.825422 407.051378 349.639111 365.727289 310.840889 365.499733 272.224711 365.499733 272.224711 365.499733 193.422222 512 200.544711 512 200.544711 512 200.544711 658.500267 193.422222 658.500267 272.224711 658.500267 272.224711 658.204444 308.770133 616.425244 350.6176 718.006044 392.123733 805.296356 487.082667 808.5504 586.046578 814.8992 778.0352 641.729422 803.384889 511.886222 803.384889M512 0C229.216711 0 0 229.239467 0 512 0 794.783289 229.216711 1024 512 1024 794.760533 1024 1024 794.783289 1024 512 1024 229.239467 794.760533 0 512 0M603.87328 564.515271C616.457102 564.515271 626.628836 554.343538 626.628836 541.759716 626.628836 529.175893 616.457102 519.00416 603.87328 519.00416L555.244658 519.00416 602.64448 474.380516C611.814969 465.75616 612.224569 451.351893 603.622969 442.20416 594.975858 433.056427 580.617102 432.624071 571.446613 441.225671L512.760036 496.47616 454.096213 441.225671C444.94848 432.624071 430.589724 433.056427 421.919858 442.20416 413.318258 451.351893 413.750613 465.75616 422.898347 474.380516L470.275413 519.00416 420.122169 519.00416C407.538347 519.00416 397.366613 529.175893 397.366613 541.759716 397.366613 554.343538 407.538347 564.515271 420.122169 564.515271L489.230791 564.515271 489.230791 604.906382 420.122169 604.906382C407.538347 604.906382 397.366613 615.100871 397.366613 627.661938 397.366613 640.24576 407.538347 650.417493 420.122169 650.417493L489.230791 650.417493 489.230791 708.171093C489.230791 720.754916 499.402524 730.926649 511.986347 730.926649 524.570169 730.926649 534.741902 720.754916 534.741902 708.171093L534.741902 650.417493 603.87328 650.417493C616.457102 650.417493 626.628836 640.24576 626.628836 627.661938 626.628836 615.100871 616.457102 604.906382 603.87328 604.906382L534.741902 604.906382 534.741902 564.515271 603.87328 564.515271Z"
          p-id="93470"></path>
</svg>