<?xml version="1.0" standalone="no"?><!DOCTYPE svg PUBLIC "-//W3C//DTD SVG 1.1//EN"
        "http://www.w3.org/Graphics/SVG/1.1/DTD/svg11.dtd">
<svg t="1672656116335" class="icon" viewBox="0 0 1024 1024" version="1.1" xmlns="http://www.w3.org/2000/svg" p-id="8464"
     xmlns:xlink="http://www.w3.org/1999/xlink" width="200" height="200">
    <path d="M512 1024C229.239467 1024 0 794.760533 0 512S229.239467 0 512 0 1024 229.239467 1024 512 794.760533 1024 512 1024z m166.661689-510.862222l-167.094045-167.981511a34.724978 34.724978 0 0 0-25.417955-10.740623c-9.875911 0-18.363733 3.549867-25.486222 10.672356L215.495111 589.528178A36.704711 36.704711 0 0 0 204.8 615.583289c0 9.853156 3.527111 18.363733 10.604089 25.486222l167.139555 168.027022c6.667378 6.712889 15.018667 10.080711 25.099378 10.103467 10.057956 0 18.8416-3.322311 26.305422-10.012444L678.570667 564.110222c6.735644-7.099733 10.103467-15.701333 10.126222-25.782044 0-10.057956-3.322311-18.454756-10.0352-25.213156z m57.435022-45.556622l-179.518578-180.451556a26.669511 26.669511 0 0 0-19.501511-8.351289c-7.509333 0-13.789867 2.753422-18.932622 8.283022-5.5296 5.506844-8.283022 12.060444-8.283022 19.569778 0 7.463822 2.730667 13.994667 8.214755 19.569778l179.518578 180.451555c5.5296 5.506844 12.014933 8.305778 19.501511 8.305778 7.509333 0 13.812622-2.730667 18.932622-8.237511 5.552356-5.552356 8.328533-12.060444 8.351289-19.547022 0-7.509333-2.753422-14.062933-8.283022-19.569778z m52.337778-192.580267c5.5296-5.506844 8.214756-12.037689 7.9872-19.569778a28.808533 28.808533 0 0 0-7.918933-19.547022 26.328178 26.328178 0 0 0-38.456889-0.045511 24.484978 24.484978 0 0 0-8.305778 18.659555c0 7.281778 2.730667 13.7216 8.260267 19.273956a71.497956 71.497956 0 0 0-26.851556-16.338489 85.265067 85.265067 0 0 0-31.675733-4.232533c-11.0592 0.6144-22.072889 3.2768-33.109334 8.009955a108.043378 108.043378 0 0 0-30.788266 20.0704v-0.568889a16.907378 16.907378 0 0 0-13.016178-5.984711 15.177956 15.177956 0 0 0-12.447289 5.9392 17.749333 17.749333 0 0 0-5.3248 13.016178c0 5.142756 1.547378 9.489067 4.7104 13.084444l115.143111 115.757512a17.8176 17.8176 0 0 0 13.016178 5.347555 17.840356 17.840356 0 0 0 13.016178-5.302044 16.725333 16.725333 0 0 0 0.045511-25.531734v-0.568889a118.556444 118.556444 0 0 0 19.569778-30.5152c4.733156-10.877156 7.509333-21.799822 8.328533-32.881777a76.686222 76.686222 0 0 0-4.096-31.448178 76.435911 76.435911 0 0 0-16.520533-26.692267c5.506844 5.165511 11.901156 7.714133 19.205688 7.736889 7.281778 0 13.676089-2.525867 19.228445-7.668622z"
          p-id="8465"></path>
    <path d="M498.414933 435.2a17.681067 17.681067 0 0 0 5.3248-12.993422 15.883378 15.883378 0 0 0-5.302044-12.4928 17.362489 17.362489 0 0 0-12.674845-5.347556 17.430756 17.430756 0 0 0-12.765866 5.3248l-180.064711 179.950934a17.726578 17.726578 0 0 0-5.3248 13.016177c0 5.142756 1.774933 9.489067 5.302044 13.061689a17.430756 17.430756 0 0 0 12.743111 5.370311 17.339733 17.339733 0 0 0 12.6976-5.347555l180.064711-180.542578z"
          p-id="8466"></path>
</svg>