<?xml version="1.0" standalone="no"?><!DOCTYPE svg PUBLIC "-//W3C//DTD SVG 1.1//EN"
        "http://www.w3.org/Graphics/SVG/1.1/DTD/svg11.dtd">
<svg t="1672664246910" class="icon" viewBox="0 0 1028 1024" version="1.1" xmlns="http://www.w3.org/2000/svg" p-id="2247"
     xmlns:xlink="http://www.w3.org/1999/xlink" width="200.78125" height="200">
    <path d="M710.852138 578.552034c-24.686873-24.406592-47.183128-47.138873-68.9418-69.11882-33.840267-34.201683-65.814452-66.515155-100.87173-99.868618l-2.906074-2.773309c-6.446468-6.166186-21.419385-20.490031-25.476086-21.589028-3.687911 1.062118-17.532327 13.859168-24.229572 20.054858l-4.80166 4.425493c-24.436095 22.319235-50.07445 48.311628-77.210096 75.830817-29.038608 29.444278-59.065576 59.891668-92.5223 91.002881-1.489916 1.386654-3.378126 5.480235-3.45926 8.290423-0.567938 20.733433-0.553187 41.658638-0.531059 61.912643 0.007376 10.975222 0.014752 51.475856-0.059007 62.443702-0.044255 6.092428-0.413046 11.13749-0.708079 15.186816-0.449925 6.180938-0.774461 10.64331 0.612193 12.162729 1.821828 1.984096 8.592832 2.463524 18.203527 2.588913 25.358073 0.346664 50.70877 0.213899 76.059468 0.08851l14.235335-0.059007c0.221275 0 0.449925-0.007376 0.678576-0.014752l-0.036879-13.534632c-0.059007-16.359571-0.162268-67.77642 0.162268-88.74588 0.486804-31.140717 11.071108-41.680765 41.961046-41.784027 33.309208-0.125389 66.670047-0.125389 100.008759 0 30.255618 0.147516 41.562752 11.587415 41.717644 42.2192 0.073758 19.302524 0.059007 68.108332 0.036879 87.978795l-0.014752 13.099458c7.368445 0.029503 14.670508 0.08851 21.928316 0.154892l5.229457 0.036879c9.920479 0.059007 19.752449 0.125389 29.532788 0.125389 16.669356 0 21.566901-0.184396 32.298721-0.597442l4.639391-0.17702c4.277976-0.154892 17.274173-0.634321 17.502824-23.204333 0.31716-32.180708 0.449925-95.420998-0.243402-128.951481C713.610695 583.338942 712.054396 579.739541 710.852138 578.552034z"
           p-id="2248"></path>
    <path d="M512.007376 0C229.233145 0 0 229.233145 0 512.014752c0 282.759479 229.233145 511.985248 512.014752 511.985248 282.766855 0 512-229.225769 512-511.985248C1024.007376 229.233145 794.781606 0 512.007376 0zM742.870577 714.96047c-0.31716 30.94157-17.701971 50.819408-45.390803 51.866774l-4.152587 0.154892c-11.285006 0.435173-16.440705 0.634321-33.869771 0.634321-11.344013 0-22.747032-0.08851-34.268065-0.169644-12.642157-0.103261-24.686873-0.169644-36.908609-0.169644l-14.486113 0 0.029503-44.100035c0.014752-19.118128 0.029503-67.186355-0.044255-85.7808-0.029503-5.974415-0.051631-11.144866-1.150628-12.265991-1.047367-1.07687-6.232569-1.106373-11.727556-1.128501-33.250202-0.125389-66.522531-0.125389-99.780108 0-6.062925 0.022127-10.857209 0.036879-11.875072 1.069494-1.054742 1.062118-1.128501 5.989167-1.224386 12.221736-0.31716 20.254005-0.22865 70.520226-0.162268 88.177942 0.029503 8.725596 0.059007 17.524951 0.059007 26.449695l-0.103261 15.828512-3.614152 0.044255c0 0-22.18647 0.272905-25.830126 0.272905l-20.851446 0.118013c-11.078483 0.051631-22.156967 0.103261-33.23545 0.103261-12.229111 0-24.450847-0.073758-36.679959-0.213899-45.324421-0.597442-47.006108-17.502824-46.703699-59.109831 0.066382-10.532673 0.066382-50.561254 0.059007-61.093926l0-1.128501c-0.022127-19.354155-0.044255-41.304598 0.538435-62.716607 0.302409-10.37778 5.391725-21.913565 12.686412-28.706696 33.205947-30.882563 63.159156-61.241443 92.124006-90.604587 27.312666-27.688833 53.113288-53.85087 77.814913-76.398755 2.338135-2.138988 4.727901-4.432869 7.169298-6.771004 12.369252-11.86032 26.398064-25.313818 41.216089-25.313818 14.869655 0 28.861588 13.512504 41.201337 25.424455 2.38239 2.301256 4.720526 4.558257 7.00703 6.667742 29.960585 27.592947 56.779071 55.237524 85.168607 84.512159 26.442319 27.261035 53.791864 55.451423 84.88095 84.70393 6.896393 6.490723 11.653797 17.583958 11.845569 27.607699C743.364757 622.26115 743.106603 688.636165 742.870577 714.96047zM860.655065 563.638124c-5.664631 5.664631-14.567247 5.79002-20.630172 0.737582L533.51527 265.647574c-12.029964-11.742307-31.280857-11.698052-43.170681 0.213899l-306.096577 298.344589c-6.011294 5.266336-15.105682 5.192578-20.858822-0.553187-5.75314-5.745765-5.84165-14.840152-0.567938-20.873574l306.413737-299.133802c23.890285-23.307595 62.082287-23.255964 85.898813 0.236026l306.221966 299.133802C866.430333 549.056125 866.327071 557.973493 860.655065 563.638124z"
           p-id="2249"></path>
</svg>