<?xml version="1.0" standalone="no"?><!DOCTYPE svg PUBLIC "-//W3C//DTD SVG 1.1//EN"
        "http://www.w3.org/Graphics/SVG/1.1/DTD/svg11.dtd">
<svg t="1672656057768" class="icon" viewBox="0 0 1024 1024" version="1.1" xmlns="http://www.w3.org/2000/svg" p-id="5839"
     xmlns:xlink="http://www.w3.org/1999/xlink" width="200" height="200">
    <path d="M512 1024C229.239467 1024 0 794.760533 0 512S229.239467 0 512 0 1024 229.239467 1024 512 794.760533 1024 512 1024z m298.939733-694.590578c-9.375289-4.687644-15.018667-15.018667-14.085689-26.305422 2.298311-27.079111-6.5536-31.061333-12.196977-38.570667-5.620622-7.509333-34.292622-8.3968-43.690667-11.218489-9.375289-2.798933-15.701333-36.841244-26.737778-45.078755-11.514311-8.578844-41.324089-1.888711-55.409778 29.127111-14.108444 30.993067 0 108.976356 0 108.976356-1.661156 11.969422-21.617778 5.620622-21.617777 5.620622-42.234311-11.264-75.821511-5.620622-75.821511-5.620622-65.080889 9.329778-109.340444 34.816-139.332267 66.946844-57.070933 53.020444-70.087111 123.107556-70.496711 148.138667-0.728178 43.758933 14.791111 73.955556 8.214755 82.420622-0.932978 6.599111-29.718756-3.822933-73.250133-5.643378-52.701867-2.184533-82.625422 24.439467-81.692444 34.770489 0.932978 10.331022 21.617778 16.907378 30.993066 21.617778 9.375289 4.687644 15.018667 15.018667 14.085689 26.282666-2.275556 27.079111 6.5536 31.061333 12.196978 38.593423 5.620622 7.509333 34.292622 8.3968 43.690667 11.218489 9.375289 2.821689 15.701333 36.841244 26.737777 45.078755 11.514311 8.578844 41.324089 1.888711 55.409778-29.127111 14.108444-30.993067 0-108.976356 0-108.976356 1.661156-11.969422 21.617778-5.620622 21.617778-5.620622 42.234311 11.264 75.821511 5.620622 75.821511 5.620622 65.1264-9.329778 109.3632-34.861511 139.355022-66.9696 57.048178-53.020444 70.0416-123.107556 70.473956-148.093155 0.750933-43.781689-14.791111-74.001067-8.214756-82.443378 0.932978-6.599111 29.718756 3.822933 73.250134 5.643378 52.701867 2.184533 82.625422-24.439467 81.692444-34.770489-0.910222-10.331022-21.617778-16.907378-30.993067-21.617778z"
          p-id="5840"></path>
</svg>