<?xml version="1.0" standalone="no"?><!DOCTYPE svg PUBLIC "-//W3C//DTD SVG 1.1//EN" "http://www.w3.org/Graphics/SVG/1.1/DTD/svg11.dtd"><svg t="1672656022730" class="icon" viewBox="0 0 1024 1024" version="1.1" xmlns="http://www.w3.org/2000/svg" p-id="4294" xmlns:xlink="http://www.w3.org/1999/xlink" width="200" height="200"><path d="M512 1024C229.239467 1024 0 794.760533 0 512S229.239467 0 512 0 1024 229.239467 1024 512 794.760533 1024 512 1024z m256.796444-661.7088c9.671111-12.288 4.551111-22.254933-11.377777-22.254933H516.869689l-2.4576-0.318578h-76.868267L384.568889 233.312711a9.489067 9.489067 0 0 0-8.374045-5.757155h-142.404266a6.189511 6.189511 0 0 0-6.257778 6.144v13.061688c0 3.413333 2.821689 6.121244 6.189511 6.121245H359.537778c3.413333 0 7.145244 2.548622 8.328533 5.848178l40.186311 81.009777h-37.0688l-57.571555 0.295823c-15.655822 0-20.775822 10.171733-11.309511 22.755555l216.223288 286.788267v144.952889h-110.865066V819.2h247.421155v-24.667022h-111.479466v-144.952889l225.416533-287.288889z" p-id="4295"></path></svg>